<svg width="174" height="57" viewBox="0 0 174 57" fill="none" xmlns="http://www.w3.org/2000/svg">
<g clip-path="url(#clip0_10127_186520)">
<path d="M166.957 20.4489C166.957 21.9923 165.71 23.1416 163.902 23.1416C162.096 23.1416 160.849 21.9923 160.849 20.4489C160.849 18.8398 162.096 17.6904 163.902 17.6904C165.71 17.6904 166.957 18.8398 166.957 20.4489ZM166.202 24.5209V41.9912C166.202 46.7199 163.64 48.7231 160.159 48.7231C159.338 48.7231 158.485 48.6575 157.697 48.3619V44.1257C158.189 44.3884 158.845 44.5197 159.601 44.5197C160.816 44.5197 161.669 43.7974 161.669 41.8598V24.5209H166.202Z" fill="#0F1D0F"/>
<path d="M154.026 42.0568V39.8893C152.876 41.5313 151.136 42.3851 148.739 42.3851C145.094 42.3851 142.664 40.2506 142.664 36.9667C142.664 33.5515 145.421 31.7126 150.545 31.7126C151.53 31.7126 152.384 31.7782 153.467 31.9095V30.8587C153.467 28.8883 152.351 27.739 150.446 27.739C148.475 27.739 147.294 28.8883 147.13 30.8587H143.024C143.288 26.8196 146.21 24.1924 150.446 24.1924C155.044 24.1924 157.736 26.721 157.736 31.0229V42.0568H154.026ZM146.965 36.8354C146.965 38.3131 148.016 39.2326 149.724 39.2326C152.055 39.2326 153.467 37.9519 153.467 35.9159V34.668C152.384 34.5038 151.628 34.4382 150.84 34.4382C148.246 34.4382 146.965 35.2592 146.965 36.8354Z" fill="#0F1D0F"/>
<path d="M128.681 32.5006V42.0567H124.117V18.4784H128.681V26.8195C129.897 25.2104 131.407 24.1924 133.706 24.1924C137.219 24.1924 139.649 26.4911 139.649 30.7273V42.0567H135.118V32.2708C135.118 29.6765 134.1 28.2315 132.031 28.2315C130.225 28.2315 128.681 29.6765 128.681 32.5006Z" fill="#0F1D0F"/>
<path d="M112.681 42.3851C107.624 42.3851 104.143 38.6416 104.143 33.2888C104.143 28.0346 107.755 24.1924 112.681 24.1924C117.245 24.1924 120.628 27.2793 121.186 32.008H116.392C116.162 29.6766 114.75 28.2316 112.681 28.2316C110.317 28.2316 108.806 30.1691 108.806 33.2888C108.806 36.4413 110.284 38.346 112.681 38.346C114.783 38.346 116.129 36.9667 116.392 34.5695H121.186C120.661 39.3968 117.377 42.3851 112.681 42.3851Z" fill="#0F1D0F"/>
<path d="M94.2145 42.3523C88.9603 42.3523 85.4466 38.7072 85.4466 33.223C85.4466 28.0017 89.0916 24.1924 94.1489 24.1924C99.6986 24.1924 103.377 28.6914 102.556 34.4053H90.1096C90.4052 37.2623 91.7844 38.8385 94.116 38.8385C96.1191 38.8385 97.4655 37.8533 97.9909 36.1129H102.523C101.537 40.0864 98.4836 42.3523 94.2145 42.3523ZM94.0502 27.542C91.9158 27.542 90.5694 28.9212 90.1753 31.5155H97.7282C97.5968 29.0854 96.2176 27.542 94.0502 27.542Z" fill="#0F1D0F"/>
<path d="M70.2385 42.0567H65.247V18.4784H74.4747C80.4185 18.4784 83.8666 21.2369 83.8666 26.1299C83.8666 29.3152 81.8962 31.8438 78.5467 32.9604L84.6218 42.0567H78.678L73.3581 33.7156H70.2385V42.0567ZM70.2385 22.6161V29.6107H74.2449C77.2659 29.6107 78.8751 28.4286 78.8751 26.1299C78.8751 23.7983 77.2659 22.6161 74.2449 22.6161H70.2385Z" fill="#0F1D0F"/>
<path d="M43.0415 8.66351H36.5793C35.4773 8.66351 34.5839 9.55689 34.5839 10.6589V26.3442H44.2307L22.5246 52.6908H38.9481C40.1668 52.6908 41.3188 52.1338 42.0758 51.1786L56.207 33.3482C56.682 32.7487 56.7726 31.9306 56.4402 31.2417L46.636 10.9202C45.9703 9.54043 44.5735 8.66351 43.0415 8.66351Z" fill="#0F1D0F"/>
<path d="M20.9421 48.2907H27.4044C28.5063 48.2907 29.3997 47.3973 29.3997 46.2952V30.61H19.7529L41.4591 4.26343L25.0356 4.26343C23.8169 4.26343 22.6649 4.82032 21.9078 5.77547L7.77671 23.606C7.30167 24.2054 7.21103 25.0236 7.54337 25.7125L17.3477 46.0339C18.0134 47.4137 19.4101 48.2907 20.9421 48.2907Z" fill="#01E46F"/>
</g>
<defs>
<clipPath id="clip0_10127_186520">
<rect width="160" height="48.4732" fill="white" transform="translate(7 4.26343)"/>
</clipPath>
</defs>
</svg>
