
<svg width="24" height="24" viewBox="0 0 24 24" fill="none" xmlns="http://www.w3.org/2000/svg">
<path d="M20.5215 3C21.2092 3.00018 21.7676 3.56028 21.7676 4.24805C21.7673 5.20439 21.1865 6.02476 20.3604 6.38086L20.708 7.32617C21.545 9.61114 21.733 12.0457 21.2695 14.416C22.7803 14.8329 23.8992 16.2245 23.8994 17.8604V17.9443C23.8992 18.3542 23.5671 18.6873 23.1572 18.6875H23.1035C22.9787 19.9831 21.8866 21 20.5586 21C19.2308 20.9997 18.1405 19.9829 18.0156 18.6875H10.5166C10.525 18.6875 10.5322 18.6858 10.5352 18.6855L10.5391 18.6846C10.538 18.6848 10.5351 18.6853 10.5322 18.6855C10.5284 18.6858 10.5219 18.6875 10.5146 18.6875C10.506 18.6875 10.4986 18.686 10.4941 18.6855L10.4893 18.6846H10.4873C10.4882 18.6847 10.4917 18.6853 10.4941 18.6855C10.4983 18.6859 10.5043 18.6875 10.5127 18.6875H7.21289C7.08809 19.9831 5.99614 21 4.66797 21C3.34027 20.9997 2.24982 19.9828 2.125 18.6875H1.74316C1.33321 18.6874 1.00025 18.3542 1 17.9443V17.7373C1.0001 16.9511 1.2678 16.2271 1.71191 15.6465V7.37402C1.712 4.96223 3.6742 3.00032 6.08594 3H20.5215ZM4.20508 20.7334C4.27933 20.7484 4.35504 20.7608 4.43164 20.7686C4.35492 20.7608 4.27944 20.7484 4.20508 20.7334ZM20.0957 20.7334C20.17 20.7484 20.2456 20.7608 20.3223 20.7686C20.2455 20.7608 20.1701 20.7484 20.0957 20.7334ZM3.99609 20.6807C4.04103 20.6942 4.08679 20.705 4.13281 20.7158C4.08679 20.705 4.04103 20.6942 3.99609 20.6807ZM19.8867 20.6807C19.9317 20.6942 19.9774 20.705 20.0234 20.7158C19.9774 20.705 19.9317 20.6942 19.8867 20.6807ZM3.77734 20.6035C3.82007 20.6212 3.86425 20.6352 3.9082 20.6504C3.86425 20.6352 3.82007 20.6212 3.77734 20.6035ZM19.668 20.6035C19.7107 20.6212 19.7549 20.6352 19.7988 20.6504C19.7549 20.6352 19.7107 20.6212 19.668 20.6035ZM3.58301 20.5107C3.62521 20.533 3.66824 20.5536 3.71191 20.5732C3.66824 20.5536 3.62521 20.533 3.58301 20.5107ZM19.4727 20.5107C19.5151 20.5331 19.5586 20.5534 19.6025 20.5732C19.5586 20.5534 19.5151 20.5331 19.4727 20.5107ZM19.2861 20.4014C19.3243 20.4262 19.3637 20.449 19.4033 20.4717C19.3637 20.449 19.3243 20.4262 19.2861 20.4014ZM3.40332 20.4062C3.4358 20.4273 3.46938 20.4464 3.50293 20.4658C3.46938 20.4464 3.4358 20.4272 3.40332 20.4062ZM19.1035 20.2686C19.1395 20.2973 19.1762 20.325 19.2139 20.3516C19.1762 20.325 19.1395 20.2973 19.1035 20.2686ZM3.22363 20.2764C3.25082 20.2978 3.2785 20.3186 3.30664 20.3389C3.27849 20.3186 3.25083 20.2978 3.22363 20.2764ZM18.9414 20.126C18.9765 20.1597 19.0127 20.1921 19.0498 20.2236C19.0127 20.1921 18.9765 20.1597 18.9414 20.126ZM3.06055 20.1348C3.08813 20.161 3.11667 20.1861 3.14551 20.2109C3.11666 20.1861 3.08814 20.161 3.06055 20.1348ZM18.7959 19.9736C18.8254 20.0076 18.8563 20.0401 18.8877 20.0723C18.8563 20.0401 18.8254 20.0076 18.7959 19.9736ZM2.91309 19.9814C2.93682 20.0085 2.9614 20.0346 2.98633 20.0605C2.96139 20.0346 2.93682 20.0085 2.91309 19.9814ZM18.6699 19.8145C18.6905 19.8427 18.7106 19.8712 18.7324 19.8984C18.7106 19.8712 18.6905 19.8427 18.6699 19.8145ZM2.7793 19.8145C2.79917 19.8418 2.81884 19.8691 2.83984 19.8955C2.81883 19.8691 2.79918 19.8417 2.7793 19.8145ZM2.65137 19.6191C2.67186 19.6541 2.69262 19.6888 2.71484 19.7227C2.69261 19.6888 2.67187 19.6541 2.65137 19.6191ZM18.5273 19.5947C18.5521 19.6382 18.578 19.6809 18.6055 19.7227C18.578 19.6809 18.5521 19.6382 18.5273 19.5947ZM18.4277 19.3994C18.4512 19.4515 18.4758 19.5028 18.5029 19.5527C18.4758 19.5028 18.4512 19.4515 18.4277 19.3994ZM2.55078 19.4268C2.56924 19.4663 2.58783 19.5056 2.6084 19.5439C2.58782 19.5056 2.56925 19.4663 2.55078 19.4268ZM18.3535 19.2129C18.37 19.2597 18.387 19.3061 18.4062 19.3516C18.387 19.3061 18.3699 19.2597 18.3535 19.2129ZM2.47559 19.2471C2.48694 19.2779 2.49814 19.3087 2.51074 19.3389C2.49813 19.3087 2.48695 19.2779 2.47559 19.2471ZM18.293 19.0117C18.3034 19.0531 18.3136 19.0943 18.3262 19.1348C18.3136 19.0943 18.3034 19.0531 18.293 19.0117ZM2.41895 19.0713C2.42369 19.0882 2.42751 19.1053 2.43262 19.1221C2.4275 19.1053 2.42369 19.0882 2.41895 19.0713ZM23.3545 18.4268C23.2935 18.4517 23.2273 18.4668 23.1572 18.4668H22.8975V18.4678H23.1572L23.2627 18.457C23.2946 18.4505 23.325 18.4388 23.3545 18.4268ZM18.2197 18.4678L18.2207 18.4668H7.00684V18.4678H18.2197ZM1.54492 18.4268C1.57477 18.439 1.60537 18.4504 1.6377 18.457C1.67172 18.464 1.70708 18.4678 1.74316 18.4678H2.33008V18.4668H1.74316C1.67282 18.4668 1.60619 18.452 1.54492 18.4268ZM1.46387 18.3848C1.485 18.3982 1.50722 18.4096 1.53027 18.4199C1.50722 18.4096 1.48501 18.3982 1.46387 18.3848ZM23.3691 18.4199C23.3922 18.4096 23.4144 18.3982 23.4355 18.3848C23.4144 18.3982 23.3922 18.4096 23.3691 18.4199ZM1.31641 18.2441C1.35118 18.2935 1.39398 18.3363 1.44336 18.3711C1.39395 18.3363 1.3512 18.2935 1.31641 18.2441ZM23.584 18.2441C23.5492 18.2935 23.5064 18.3363 23.457 18.3711C23.5064 18.3363 23.5493 18.2936 23.584 18.2441ZM1.26758 18.1562C1.27789 18.1793 1.28932 18.2015 1.30273 18.2227C1.28931 18.2015 1.2779 18.1793 1.26758 18.1562ZM23.5977 18.2227C23.611 18.2015 23.6225 18.1793 23.6328 18.1562C23.6225 18.1793 23.6111 18.2015 23.5977 18.2227ZM1.23047 18.0488C1.23699 18.0807 1.24872 18.1112 1.26074 18.1406C1.24865 18.111 1.23699 18.0809 1.23047 18.0488ZM23.6396 18.1406C23.6489 18.1179 23.6561 18.0945 23.6621 18.0703C23.6561 18.0945 23.6489 18.1179 23.6396 18.1406ZM21.8281 16.1133C22.2138 16.4462 22.4895 16.9038 22.5908 17.4209H22.5918C22.4793 16.8464 22.1511 16.3451 21.6963 16.0068L21.8281 16.1133ZM4.45312 15.7715C3.55554 15.7715 2.79782 16.3774 2.56348 17.2012H6.94141C6.70715 16.3773 5.94937 15.7715 5.05176 15.7715H4.45312ZM3.19727 14.5244C3.58644 14.3717 4.01045 14.2861 4.45312 14.2861H5.05176C6.77258 14.2861 8.19924 15.5521 8.45801 17.2012H9.53613L8.50781 13.5312C8.30367 12.8037 7.63172 12.2949 6.87598 12.2949H3.19727V14.5244ZM7.22266 6.57129C6.85282 6.57151 6.55183 6.8731 6.55176 7.24316V7.52734C7.56302 7.63229 8.35431 8.48975 8.35449 9.52832V11.1787C9.10851 11.5766 9.69643 12.271 9.9375 13.1309L11.0791 17.2012H12.8213V6.57129H7.22266ZM14.3066 17.2012H18.8496L19.3135 15.9346C19.4427 15.5828 19.5575 15.2152 19.6543 14.8428L19.7656 14.376C19.9879 13.3515 20.0684 12.3114 20.0146 11.2783H14.3066V17.2012ZM20.8438 16.0557L20.708 16.4473L20.4316 17.2012H22.3057C22.0883 16.5554 21.5624 16.0469 20.9062 15.8555C20.8853 15.9223 20.8657 15.9894 20.8438 16.0557ZM8.21094 17.0615C8.19564 16.99 8.17817 16.9193 8.1582 16.8496C8.17816 16.9193 8.19564 16.99 8.21094 17.0615ZM8.11914 16.7266C8.10177 16.674 8.08442 16.6217 8.06445 16.5703C8.08441 16.6217 8.10177 16.674 8.11914 16.7266ZM1.51074 16.3984C1.47345 16.48 1.43972 16.5635 1.40918 16.6484L1.51172 16.3984C1.54905 16.3169 1.58908 16.2369 1.63281 16.1592L1.51074 16.3984ZM8.02832 16.4854C8.00415 16.4281 7.97849 16.3719 7.95117 16.3164C7.97848 16.3719 8.00416 16.4281 8.02832 16.4854ZM7.90332 16.2227C7.87594 16.1713 7.8474 16.1209 7.81738 16.0713C7.84739 16.1209 7.87595 16.1713 7.90332 16.2227ZM7.76367 15.9834C7.73077 15.9327 7.69577 15.8836 7.66016 15.835C7.69576 15.8836 7.73078 15.9327 7.76367 15.9834ZM20.6768 15.8555C20.7046 15.7686 20.7327 15.6816 20.7588 15.5938C20.8737 15.6158 20.9864 15.646 21.0947 15.6846C20.9863 15.6459 20.8738 15.6148 20.7588 15.5928C20.7327 15.6808 20.7046 15.7684 20.6768 15.8555ZM7.5957 15.749C7.56131 15.7051 7.52485 15.6631 7.48828 15.6211C7.52484 15.6631 7.56132 15.7051 7.5957 15.749ZM7.01562 15.1738C7.1613 15.2857 7.29724 15.4094 7.42188 15.5439C7.29722 15.4094 7.16133 15.2857 7.01562 15.1738ZM6.94238 15.1211C6.89391 15.086 6.84536 15.051 6.79492 15.0186C6.84536 15.051 6.89391 15.086 6.94238 15.1211ZM6.69141 14.9561C6.64577 14.9291 6.59977 14.9027 6.55273 14.8779C6.59977 14.9027 6.64577 14.929 6.69141 14.9561ZM6.44922 14.8262C6.39783 14.8014 6.34582 14.7779 6.29297 14.7559C6.34582 14.7779 6.39783 14.8014 6.44922 14.8262ZM6.19336 14.7158C6.14128 14.6961 6.08847 14.6782 6.03516 14.6611C6.08848 14.6782 6.14128 14.6961 6.19336 14.7158ZM5.91406 14.624C5.87056 14.612 5.82644 14.6021 5.78223 14.5918C5.82645 14.6021 5.87055 14.612 5.91406 14.624ZM16.6885 11.7227C17.0159 11.7229 17.2812 11.9889 17.2812 12.3164C17.2809 12.6436 17.0157 12.9089 16.6885 12.9092H15.5117C15.1843 12.9092 14.9183 12.6438 14.918 12.3164C14.918 11.9888 15.1841 11.7227 15.5117 11.7227H16.6885ZM16.6875 12.6895H16.6885C16.7129 12.6894 16.7367 12.6861 16.7598 12.6816C16.7365 12.6862 16.7121 12.6895 16.6875 12.6895ZM15.3701 12.6611C15.3911 12.6697 15.4129 12.677 15.4355 12.6816C15.4128 12.677 15.3911 12.6697 15.3701 12.6611ZM16.7861 12.6738C16.7978 12.6706 16.8091 12.6673 16.8203 12.6631C16.8091 12.6673 16.7978 12.6706 16.7861 12.6738ZM15.3154 12.6328C15.3281 12.6406 15.3409 12.648 15.3545 12.6543C15.3409 12.648 15.3281 12.6406 15.3154 12.6328ZM16.8545 12.6484C16.8646 12.6434 16.8742 12.6378 16.8838 12.6318C16.8742 12.6378 16.8646 12.6434 16.8545 12.6484ZM15.2471 12.5801C15.2616 12.5946 15.2772 12.6081 15.2939 12.6201C15.2772 12.6081 15.2616 12.5946 15.2471 12.5801ZM16.9121 12.6123C16.9212 12.6054 16.9301 12.5985 16.9385 12.5908C16.9301 12.5985 16.9212 12.6054 16.9121 12.6123ZM16.959 12.5713C16.97 12.5596 16.9798 12.5472 16.9893 12.5342C16.9798 12.5472 16.97 12.5596 16.959 12.5713ZM17 12.5195C17.0091 12.5056 17.0162 12.4907 17.0234 12.4756C17.0162 12.4907 17.0091 12.5056 17 12.5195ZM15.1709 12.4678C15.178 12.4837 15.1861 12.499 15.1953 12.5137C15.1861 12.499 15.178 12.4837 15.1709 12.4678ZM15.1377 12.3154V12.3164C15.1377 12.3421 15.1395 12.3674 15.1445 12.3916C15.1491 12.414 15.1566 12.4353 15.165 12.4561C15.1475 12.4127 15.1377 12.3651 15.1377 12.3154ZM17.0537 12.3916C17.0491 12.414 17.0416 12.4353 17.0332 12.4561C17.0416 12.4353 17.0491 12.414 17.0537 12.3916C17.0587 12.3673 17.0615 12.3422 17.0615 12.3164L17.0537 12.3916ZM17.0605 12.3096C17.0601 12.2862 17.0582 12.2634 17.0537 12.2412C17.0582 12.2634 17.0602 12.2862 17.0605 12.3096ZM17.0479 12.2236C17.0439 12.2083 17.0399 12.1932 17.0342 12.1787C17.0399 12.1932 17.0439 12.2083 17.0479 12.2236ZM17.0195 12.1455C17.0154 12.1374 17.0106 12.1298 17.0059 12.1221C17.0106 12.1298 17.0154 12.1374 17.0195 12.1455ZM16.9854 12.0918C16.9774 12.0812 16.969 12.0712 16.96 12.0615C16.969 12.0712 16.9774 12.0812 16.9854 12.0918ZM16.9443 12.0449C16.9324 12.0336 16.9196 12.0234 16.9062 12.0137C16.9196 12.0233 16.9324 12.0336 16.9443 12.0449ZM16.6875 11.9424C16.7627 11.9424 16.833 11.9647 16.8916 12.0029C16.8532 11.9778 16.8102 11.9588 16.7637 11.9492C16.7394 11.9442 16.7142 11.9424 16.6885 11.9424H16.6875ZM8.41113 11.4629C8.50047 11.5172 8.58682 11.5764 8.66992 11.6396C8.58683 11.5763 8.50046 11.5173 8.41113 11.4629ZM7.13379 11.041H7.13477H7.13379ZM6.55176 10.8096H6.87598C6.97425 10.8096 7.07196 10.8141 7.16797 10.8232V9.52832C7.1678 9.1462 6.90515 8.82656 6.55176 8.7334V10.8096ZM14.3066 9.79297H19.8408C19.7208 9.13202 19.5481 8.4774 19.3135 7.83691L18.8496 6.57129H14.3066V9.79297ZM6.44922 8.49023C6.50359 8.4958 6.5568 8.50593 6.6084 8.51953C6.52347 8.49713 6.43464 8.48441 6.34277 8.48438L6.44922 8.49023ZM6.34277 7.73633C6.52802 7.73636 6.7068 7.76493 6.875 7.81738C6.70678 7.76489 6.52805 7.73638 6.34277 7.73633ZM2.0625 6.33691C2.02828 6.46956 2.00055 6.6048 1.97949 6.74219C2.00054 6.60481 2.02829 6.46955 2.0625 6.33691ZM20.0811 6.25293C20.1321 6.23668 20.1822 6.2182 20.2314 6.19824C20.1822 6.2182 20.1321 6.23668 20.0811 6.25293ZM20.3623 6.13965C20.366 6.13786 20.3694 6.13559 20.373 6.13379C20.3694 6.1356 20.366 6.13786 20.3623 6.13965ZM20.4502 6.09277C20.4731 6.08023 20.4962 6.06805 20.5186 6.05469C20.4962 6.06805 20.4731 6.08023 20.4502 6.09277ZM20.5723 6.02051C20.5995 6.00314 20.627 5.98633 20.6533 5.96777C20.627 5.98634 20.5995 6.00314 20.5723 6.02051ZM20.7168 5.9209C20.7378 5.90489 20.7579 5.88786 20.7783 5.87109C20.7579 5.88786 20.7378 5.90489 20.7168 5.9209ZM20.832 5.8252C20.8539 5.80599 20.8755 5.78668 20.8965 5.7666C20.8755 5.78668 20.8538 5.80599 20.832 5.8252ZM20.9502 5.71289C20.9692 5.69341 20.9876 5.67352 21.0059 5.65332C20.9876 5.67353 20.9692 5.6934 20.9502 5.71289ZM21.0537 5.59961C21.0733 5.57639 21.0918 5.55238 21.1104 5.52832C21.0918 5.55239 21.0733 5.57638 21.0537 5.59961ZM21.1523 5.47266C21.1706 5.44723 21.1889 5.42176 21.2061 5.39551C21.1889 5.42177 21.1706 5.44723 21.1523 5.47266ZM21.2402 5.33984C21.2544 5.31669 21.268 5.29326 21.2812 5.26953C21.268 5.29326 21.2544 5.31669 21.2402 5.33984ZM21.3223 5.19336C21.3314 5.17531 21.34 5.15702 21.3486 5.13867C21.34 5.15702 21.3314 5.17531 21.3223 5.19336ZM21.4404 4.90918C21.4557 4.8632 21.4703 4.81685 21.4824 4.76953C21.4703 4.81685 21.4557 4.8632 21.4404 4.90918ZM21.4883 4.74609C21.5001 4.69787 21.5102 4.64906 21.5186 4.59961C21.5102 4.64906 21.5001 4.69787 21.4883 4.74609ZM21.542 4.42188C21.5422 4.41961 21.5418 4.4173 21.542 4.41504V4.42188ZM21.5166 3.99609C21.5125 3.98003 21.5087 3.964 21.5039 3.94824C21.5087 3.96399 21.5125 3.98003 21.5166 3.99609ZM21.4932 3.91602C21.4863 3.89586 21.4788 3.87602 21.4707 3.85645C21.4788 3.87602 21.4863 3.89586 21.4932 3.91602ZM21.4551 3.82227C21.4459 3.80221 21.4372 3.78204 21.4268 3.7627C21.4372 3.78204 21.4459 3.80221 21.4551 3.82227ZM21.4092 3.7334C21.3998 3.71734 21.391 3.70104 21.3809 3.68555C21.391 3.70104 21.3998 3.71734 21.4092 3.7334ZM21.3584 3.65332C21.3465 3.63664 21.3341 3.62042 21.3213 3.60449C21.3341 3.62042 21.3465 3.63664 21.3584 3.65332ZM21.1865 3.46582C21.2295 3.5025 21.2692 3.54274 21.3057 3.58594C21.2692 3.54276 21.2295 3.50249 21.1865 3.46582ZM21.1621 3.44531C21.149 3.43486 21.1356 3.42486 21.1221 3.41504C21.1356 3.42486 21.149 3.43485 21.1621 3.44531ZM5.4541 3.26758C5.31671 3.28865 5.18147 3.31636 5.04883 3.35059C5.18147 3.31636 5.31671 3.28865 5.4541 3.26758ZM21.0752 3.38281C21.0656 3.37665 21.0557 3.37108 21.0459 3.36523C21.0557 3.37108 21.0656 3.37665 21.0752 3.38281ZM21.002 3.33984C20.9841 3.33035 20.9657 3.32193 20.9473 3.31348C20.9657 3.32193 20.9841 3.33035 21.002 3.33984ZM20.9072 3.29492C20.9006 3.29221 20.8934 3.29066 20.8867 3.28809C20.8934 3.29066 20.9006 3.29221 20.9072 3.29492ZM18.2402 18.7363C18.2481 18.7979 18.257 18.8589 18.2695 18.9189C18.257 18.8589 18.248 18.7979 18.2402 18.7363ZM8.54102 13.0479C8.52401 13.0179 8.50582 12.9888 8.4873 12.96C8.50581 12.9888 8.52402 13.0179 8.54102 13.0479ZM7.16309 8.88477C7.1492 8.86711 7.13509 8.84972 7.12012 8.83301C7.1351 8.84971 7.14919 8.86712 7.16309 8.88477ZM21.3896 5.04688C21.4038 5.01256 21.4163 4.97758 21.4287 4.94238C21.4163 4.97758 21.4038 5.01255 21.3896 5.04688ZM21.5205 4.58887C21.5286 4.53961 21.5345 4.48979 21.5391 4.43945C21.5345 4.48979 21.5286 4.53961 21.5205 4.58887Z" fill="#202020"/>
</svg>
